HIERARCHY
ROOT Hips
{
    OFFSET 0.000000 0.000000 0.000000
    CHANNELS 6 Xposition Yposition Zposition Zrotation Xrotation Yrotation
    JOINT Spine
    {
        OFFSET -0.000000 7.883683 0.000000
        CHANNELS 3 Zrotation Xrotation Yrotation
        JOINT Spine1
        {
            OFFSET -0.000000 24.776327 0.000000
            CHANNELS 3 Zrotation Xrotation Yrotation
            JOINT Neck
            {
                OFFSET -0.000000 24.674574 2.243143
                CHANNELS 3 Zrotation Xrotation Yrotation
                JOINT Head
                {
                    OFFSET -0.000000 13.459947 -1.922849
                    CHANNELS 3 Zrotation Xrotation Yrotation
                    End Site
                    {
                        OFFSET -0.000000 24.035618 0.000000
                    }
                }
            }
            JOINT LeftShoulder
            {
                OFFSET 3.810223 22.323311 -0.325006
                CHANNELS 3 Zrotation Xrotation Yrotation
                JOINT LeftArm
                {
                    OFFSET 12.560579 0.000000 0.000000
                    CHANNELS 3 Zrotation Xrotation Yrotation
                    JOINT LeftForeArm
                    {
                        OFFSET 28.806782 0.000000 0.000000
                        CHANNELS 3 Zrotation Xrotation Yrotation
                        JOINT LeftHand
                        {
                            OFFSET 23.813900 0.000000 0.000000
                            CHANNELS 3 Zrotation Xrotation Yrotation
                            End Site
                            {
                                OFFSET 14.421371 0.000000 0.000000
                            }
                        }
                    }
                }
            }
            JOINT RightShoulder
            {
                OFFSET -3.823061 22.323311 -0.325006
                CHANNELS 3 Zrotation Xrotation Yrotation
                JOINT RightArm
                {
                    OFFSET -12.560579 0.000000 0.000000
                    CHANNELS 3 Zrotation Xrotation Yrotation
                    JOINT RightForeArm
                    {
                        OFFSET -28.806782 0.000000 0.000000
                        CHANNELS 3 Zrotation Xrotation Yrotation
                        JOINT RightHand
                        {
                            OFFSET -23.813900 0.000000 0.000000
                            CHANNELS 3 Zrotation Xrotation Yrotation
                            End Site
                            {
                                OFFSET -14.421371 0.000000 0.000000
                            }
                        }
                    }
                }
            }
        }
    }
    JOINT LeftUpLeg
    {
        OFFSET 9.614247 0.000000 0.000000
        CHANNELS 3 Zrotation Xrotation Yrotation
        JOINT LeftLeg
        {
            OFFSET -0.000000 -41.464203 0.000000
            CHANNELS 3 Zrotation Xrotation Yrotation
            JOINT LeftFoot
            {
                OFFSET -0.000000 -34.276012 0.000000
                CHANNELS 3 Zrotation Xrotation Yrotation
                JOINT LeftToeBase
                {
                    OFFSET -0.000000 -6.249260 14.421371
                    CHANNELS 3 Zrotation Xrotation Yrotation
                    End Site
                    {
                        OFFSET -0.000000 0.000000 3.845699
                    }
                }
            }
        }
    }
    JOINT RightUpLeg
    {
        OFFSET -9.614247 0.000000 0.000000
        CHANNELS 3 Zrotation Xrotation Yrotation
        JOINT RightLeg
        {
            OFFSET -0.000000 -41.464203 0.000000
            CHANNELS 3 Zrotation Xrotation Yrotation
            JOINT RightFoot
            {
                OFFSET -0.000000 -34.276012 0.000000
                CHANNELS 3 Zrotation Xrotation Yrotation
                JOINT RightToeBase
                {
                    OFFSET -0.000000 -6.249260 14.421371
                    CHANNELS 3 Zrotation Xrotation Yrotation
                    End Site
                    {
                        OFFSET -0.000000 0.000000 3.845699
                    }
                }
            }
        }
    }
}
MOTION
Frames:    5
Frame Time:    0.004000
-14.449540    80.313667    -196.642303    0.233279    -1.312994    1.153853    0.135311    -2.845443    0.295947    -0.163037    -3.586100    0.287676    6.367870    11.480410    -2.998753    -0.001484    6.804076    -3.407296    14.124393    2.350973    6.992387    -22.787888    -2.846355    -1.896075    2.800448    -1.823004    -3.350835    -1.365989    -1.688666    -4.400993    -14.693533    -2.126226    12.550971    19.532703    -0.165101    -2.341460    -2.299802    -0.037272    4.059244    -1.628103    0.031234    0.966896    0.484559    8.010620    1.116599    -8.861839    -4.330974    -3.307084    8.432424    -2.113427    18.851746    0.000000    0.000000    0.000000    0.192472    9.070866    -0.218069    4.833427    -8.305403    0.927644    -5.517381    -0.205145    -8.259111    0.000000    0.000000    0.000000    
-14.445123    80.312820    -196.645020    0.234023    -1.318209    1.149440    0.139571    -2.846084    0.297721    -0.174861    -3.576084    0.289037    6.380180    11.492407    -3.005340    -0.006517    6.783485    -3.414409    14.124211    2.364580    6.988125    -22.825491    -2.868771    -1.894232    2.765969    -1.819689    -3.317058    -1.155772    -1.695093    -4.414001    -14.688513    -2.121011    12.542600    19.538448    -0.180797    -2.334626    -2.294564    -0.037009    4.055131    -1.605531    0.032088    0.971990    0.482801    8.019482    1.115471    -8.869713    -4.345947    -3.276766    8.431653    -2.110308    18.827223    0.000000    0.000000    0.000000    0.189850    9.070720    -0.220404    4.834009    -8.300479    0.946234    -5.525999    -0.201896    -8.272624    0.000000    0.000000    0.000000    
-14.442316    80.312027    -196.648376    0.233468    -1.314534    1.148340    0.137977    -2.853803    0.295018    -0.171358    -3.566471    0.286407    6.377999    11.482406    -3.003302    -0.012256    6.795179    -3.413250    14.107067    2.343681    6.999994    -22.839664    -2.872406    -1.886160    2.756114    -1.778792    -3.293870    -1.215304    -1.652714    -4.418850    -14.695471    -2.114514    12.538263    19.547911    -0.201578    -2.323670    -2.289525    -0.035568    4.046708    -1.588409    0.033177    0.971295    0.483604    8.016451    1.119169    -8.877987    -4.353127    -3.267828    8.452295    -2.107309    18.814325    0.000000    0.000000    0.000000    0.191225    9.063782    -0.206583    4.829942    -8.299740    0.940098    -5.522151    -0.205775    -8.285775    0.000000    0.000000    0.000000    
-14.439860    80.311455    -196.650940    0.230663    -1.319398    1.149747    0.145799    -2.852934    0.295045    -0.184012    -3.561714    0.285901    6.383560    11.494781    -3.006549    -0.009384    6.777396    -3.415939    14.107327    2.340212    6.988893    -22.874348    -2.888333    -1.863997    2.752352    -1.757874    -3.287500    -1.227620    -1.631827    -4.398516    -14.684032    -2.111383    12.537477    19.549133    -0.198646    -2.330925    -2.290122    -0.041350    4.046641    -1.575280    0.026113    0.964273    0.487869    8.019287    1.109797    -8.879299    -4.347373    -3.280548    8.449484    -2.109074    18.825859    0.000000    0.000000    0.000000    0.193162    9.063390    -0.209697    4.831252    -8.295146    0.939426    -5.558853    -0.203676    -8.273620    0.000000    0.000000    0.000000    
-14.436090    80.309830    -196.653275    0.232178    -1.319329    1.145007    0.143814    -2.858743    0.291796    -0.180359    -3.553734    0.282556    6.369756    11.505168    -3.008132    -0.005355    6.768755    -3.415996    14.085572    2.356623    7.002284    -22.896852    -2.916790    -1.859361    2.760015    -1.765372    -3.286723    -1.284337    -1.637055    -4.386728    -14.691110    -2.106310    12.548644    19.555227    -0.222533    -2.329869    -2.281371    -0.035040    4.034702    -1.573890    0.031700    0.964933    0.483659    8.022815    1.111786    -8.878499    -4.358090    -3.299440    8.428354    -2.107745    18.853571    0.000000    0.000000    0.000000    0.191634    9.058281    -0.198250    4.824764    -8.286458    0.943057    -5.571634    -0.219144    -8.279257    0.000000    0.000000    0.000000    
